<?xml version="1.0" encoding="UTF-8"?>
<svg id="Capa_1" data-name="Capa 1" xmlns="http://www.w3.org/2000/svg" viewBox="0 0 364.19 145.16">
  <defs>
    <style>
      .cls-1 {
        fill: none;
      }

      .cls-1, .cls-2, .cls-3 {
        stroke-width: 0px;
      }

      .cls-3 {
        fill-rule: evenodd;
      }
    </style>
  </defs>
  <path class="cls-1" d="m0,0v145.16h364.19V0H0Z"/>
  <g>
    <path class="cls-2" d="m144.69,55.03h26.1v6.79h-18.57v7.04h16.34v6.78h-16.34v7.28h18.81v6.79h-26.34v-34.67Zm45.56,35.16c-2.64,0-5.23-.45-7.78-1.36-2.54-.9-4.85-2.3-6.93-4.18l4.51-5.4c1.58,1.29,3.2,2.31,4.88,3.08,1.66.75,3.49,1.13,5.47,1.13,1.59,0,2.82-.3,3.69-.87.88-.57,1.32-1.38,1.32-2.41v-.1c0-.5-.09-.94-.28-1.32-.18-.38-.53-.73-1.04-1.05-.52-.33-1.22-.66-2.14-1-.9-.33-2.09-.68-3.55-1.04-1.76-.42-3.35-.9-4.78-1.43-1.41-.53-2.62-1.18-3.62-1.96-1-.78-1.76-1.74-2.31-2.89-.55-1.15-.82-2.59-.82-4.31v-.1c0-1.58.3-3.01.88-4.28.59-1.27,1.42-2.36,2.49-3.29,1.07-.93,2.34-1.63,3.82-2.13,1.47-.49,3.11-.74,4.9-.74,2.54,0,4.88.39,7.01,1.14,2.13.76,4.08,1.86,5.86,3.27l-3.96,5.74c-1.55-1.06-3.07-1.89-4.55-2.49-1.49-.62-2.97-.92-4.46-.92s-2.6.29-3.34.87c-.75.59-1.12,1.3-1.12,2.16v.08c0,.57.1,1.05.33,1.47.21.42.6.78,1.17,1.12.55.33,1.32.65,2.31.94.97.3,2.2.65,3.7,1.03,1.75.47,3.31.99,4.68,1.56,1.38.58,2.53,1.28,3.47,2.08.94.81,1.66,1.76,2.14,2.86.48,1.08.72,2.39.72,3.9v.1c0,1.72-.32,3.24-.93,4.58-.63,1.34-1.5,2.46-2.61,3.36-1.12.91-2.45,1.61-3.99,2.09-1.55.49-3.26.71-5.14.71Zm19.31-35.16h14.16c2.08,0,3.93.3,5.56.88,1.63.57,3.02,1.39,4.16,2.45,1.14,1.06,2.01,2.32,2.62,3.79.62,1.47.92,3.09.92,4.88v.1c0,2.01-.37,3.78-1.1,5.31-.72,1.51-1.73,2.78-2.99,3.8-1.28,1.03-2.76,1.8-4.46,2.31-1.7.5-3.52.77-5.47.77h-5.79v10.4h-7.63v-34.67Zm13.67,17.49c1.91,0,3.39-.5,4.46-1.51,1.05-1,1.58-2.26,1.58-3.74v-.11c0-1.71-.55-3.01-1.66-3.91-1.1-.88-2.62-1.34-4.53-1.34h-5.88v10.6h6.04Zm19.41-17.49h26.09v6.79h-18.57v7.04h16.34v6.78h-16.34v7.28h18.82v6.79h-26.34v-34.67Zm33.17,0h15.84c4.4,0,7.76,1.18,10.11,3.52,1.98,1.98,2.97,4.62,2.97,7.92v.1c0,2.81-.68,5.1-2.05,6.85-1.37,1.76-3.16,3.07-5.37,3.9l8.47,12.38h-8.92l-7.42-11.1h-5.99v11.1h-7.63v-34.67Zm15.35,16.84c1.89,0,3.33-.44,4.33-1.34,1.01-.88,1.51-2.08,1.51-3.56v-.09c0-1.66-.53-2.89-1.58-3.72-1.05-.83-2.53-1.24-4.4-1.24h-7.57v9.96h7.72Zm28.53-9.8h-10.55v-7.04h28.72v7.04h-10.55v27.63h-7.62v-27.63Z"/>
    <g>
      <path class="cls-3" d="m72.64,26.22c-25.49,0-46.3,20.81-46.3,46.29s20.81,46.31,46.3,46.31c25.5,0,46.3-20.79,46.3-46.3s-20.8-46.29-46.3-46.3m0,89.94c-24.04,0-43.64-19.6-43.64-43.64s19.6-43.63,43.64-43.63,43.63,19.61,43.63,43.64-19.6,43.65-43.63,43.63"/>
      <path class="cls-3" d="m36.01,68.24c2.13-18.31,17.75-32.62,36.63-32.62,18.86,0,34.49,14.31,36.62,32.63.91.04,1.82.14,2.72.28-2.02-19.92-18.91-35.55-39.34-35.56-20.45,0-37.34,15.63-39.35,35.56.89-.14,1.81-.24,2.72-.28"/>
      <path class="cls-3" d="m65.58,41.47c4.64-2.39,9.27-2.25,13.9,0v24.99h-13.9v-24.99Z"/>
      <rect class="cls-2" x="65.58" y="70.37" width="13.9" height="2.57"/>
      <path class="cls-3" d="m79.48,79.69v-3.01h-13.9v2.83c3.79,5.03,6.19,10.56,7.02,15.92.81-5.3,3.17-10.77,6.88-15.74"/>
      <path class="cls-2" d="m83.28,83.56c-5.96,6.1-9.69,13.79-10.59,21.13-.92-7.34-4.69-15.03-10.67-21.13-8.36-8.54-19.4-12.74-28.93-11.04,0,21.01,16.55,38.23,37.28,39.43l-2.78-2.93-3.21-3.37c-3.27-1.37-7.61-1.87-10.54-1.45-.53-.33-1.08-.63-1.59-.97,2.72-.91,5.96-1.06,9.28-.61l-6.09-6.41c-3.79-.81-7.66-.89-10.87.16-.22-.26-.43-.52-.65-.78,2.91-1.2,6.49-1.4,10.08-.89l-5.92-6.23c-2.95-.67-6-.87-8.8-.35-.11-.23-.24-.46-.34-.7,2.49-.59,5.19-.68,7.9-.29l-8.91-9.37.48-.49,9.32,8.96c-.42-2.98-.37-5.99.41-8.67.24.12.46.21.71.35-.73,3.02-.52,6.35.21,9.58l6.19,5.95c-.51-3.67-.29-7.36.97-10.3.02-.04.04-.05.05-.08.26.21.47.46.73.68-1.13,3.27-1.06,7.26-.24,11.15l6.37,6.12c-.5-3.7-.3-7.34.9-10.22.28.41.61.81.86,1.22-.81,2.82-.3,8.11,1.24,11.88l5.67,5.45.84.82.86-.82,5.67-5.45c1.54-3.77,2.04-9.06,1.23-11.88.26-.41.58-.81.87-1.22,1.2,2.88,1.4,6.52.89,10.22l6.38-6.12c.82-3.89.89-7.88-.25-11.15.25-.22.46-.47.73-.68.01.04.03.04.05.08,1.27,2.94,1.48,6.63.97,10.3l6.19-5.95c.72-3.23.92-6.56.21-9.58.23-.14.47-.23.71-.35.78,2.68.82,5.68.4,8.67l9.33-8.96.48.49-8.91,9.37c2.7-.39,5.41-.3,7.9.29-.11.23-.23.47-.34.7-2.81-.52-5.85-.32-8.81.35l-5.92,6.23c3.6-.5,7.19-.3,10.08.89-.21.26-.43.52-.65.78-3.21-1.05-7.08-.97-10.87-.16l-6.09,6.41c3.32-.46,6.55-.3,9.27.61-.51.34-1.05.64-1.58.97-2.95-.42-7.27.09-10.55,1.45l-3.21,3.37-2.76,2.91c20.71-1.18,37.26-18.4,37.26-39.41-9.54-1.71-20.58,2.49-28.91,11.04"/>
    </g>
  </g>
</svg>